<?xml version="1.0" encoding="UTF-8"?>
<svg version="1.1" xmlns="http://www.w3.org/2000/svg" width="512" height="512">
<path d="M0 0 C1.91008292 1.03177044 3.83453312 2.03237938 5.76123047 3.03271484 C22.38679749 11.8384982 36.99967107 23.38489631 50.38476562 36.54199219 C51.66963063 37.80435226 52.9715513 39.0493134 54.27685547 40.29052734 C92.18523415 76.85833467 111.73350535 130.91872098 112.95483398 182.76757812 C113.41434596 242.33511896 89.4311737 295.08008843 48.14013672 337.02099609 C41.4580445 343.70774482 34.61840042 349.57289725 26.89013672 355.02099609 C26.35727051 355.40884277 25.8244043 355.79668945 25.27539062 356.19628906 C1.35676635 373.56264271 -26.26374592 385.02156177 -55.10986328 391.02099609 C-55.85268555 391.18470703 -56.59550781 391.34841797 -57.36083984 391.51708984 C-84.08775566 397.19318781 -115.63641715 396.30328646 -142.10986328 390.02099609 C-143.13917969 389.77961914 -144.16849609 389.53824219 -145.22900391 389.28955078 C-160.17238773 385.67421599 -174.25436401 380.67027875 -188.10986328 374.02099609 C-189.24609131 373.47572266 -189.24609131 373.47572266 -190.40527344 372.91943359 C-218.64383645 359.13182347 -243.97256729 337.90344735 -262.78662109 312.78417969 C-264.04434362 311.10829923 -265.32216958 309.44950103 -266.60205078 307.79052734 C-298.57109912 265.54958227 -311.12622732 208.49927334 -303.98486328 156.33349609 C-295.46523697 100.9952464 -266.22478792 50.86206663 -221.1887207 17.39135742 C-157.88785531 -28.86498075 -69.66778689 -37.72695419 0 0 Z " fill="#34C300" transform="translate(341.10986328125,58.97900390625)"/>
</svg>
