<?xml version="1.0" encoding="UTF-8"?>
<svg version="1.1" xmlns="http://www.w3.org/2000/svg" width="512" height="512">
<path d="M0 0 C1.54045755 1.33180026 3.06205555 2.68577641 4.5625 4.0625 C5.31789063 4.72636719 6.07328125 5.39023437 6.8515625 6.07421875 C16.76617737 15.29038137 23.75100855 27.09576778 27.5625 40.0625 C27.5625 41.0525 27.5625 42.0425 27.5625 43.0625 C28.75875 43.413125 29.955 43.76375 31.1875 44.125 C37.9791576 46.36353034 44.23279095 49.77609345 50.5625 53.0625 C50.70236328 52.5048999 50.84222656 51.9472998 50.98632812 51.37280273 C57.01326901 27.79070082 66.35630511 8.47384355 87.5625 -4.9375 C106.49780956 -16.06420643 128.10650253 -19.54899887 149.625 -14.4375 C161.86408894 -10.505485 173.04530214 -4.62016746 182.5625 4.0625 C183.1709375 4.57941406 183.779375 5.09632812 184.40625 5.62890625 C196.79253761 16.86101706 205.64812328 35.29363151 206.74707031 51.84179688 C207.77568041 75.18162604 203.47517253 95.75452295 187.7734375 113.67651367 C183.44773514 118.39322735 178.80189983 122.40417106 173.5625 126.0625 C172.83160156 126.59230469 172.10070312 127.12210938 171.34765625 127.66796875 C166.03989664 131.19740206 160.43879783 133.34399843 154.4375 135.375 C153.68533203 135.62975098 152.93316406 135.88450195 152.15820312 136.14697266 C147.28715515 137.71266665 142.65573477 138.57165538 137.5625 139.0625 C137.8298999 139.61188232 138.0972998 140.16126465 138.37280273 140.72729492 C139.58780543 143.23203315 140.79396404 145.74093277 142 148.25 C142.42087891 149.11431641 142.84175781 149.97863281 143.27539062 150.86914062 C143.67822266 151.71025391 144.08105469 152.55136719 144.49609375 153.41796875 C145.0538147 154.57268677 145.0538147 154.57268677 145.62280273 155.75073242 C146.60902149 158.17694842 147.12986479 160.48463215 147.5625 163.0625 C148.75875 163.248125 149.955 163.43375 151.1875 163.625 C162.3604631 166.1411161 172.16979135 172.46909693 180.5625 180.0625 C181.32046875 180.72765625 182.0784375 181.3928125 182.859375 182.078125 C196.69396108 194.95860169 206.19248234 214.13549241 206.8984375 233.1015625 C207.20941996 255.49567962 203.11157634 276.01772093 187.5625 293.0625 C186.78519531 293.94292969 186.00789063 294.82335937 185.20703125 295.73046875 C176.25039396 305.32214089 164.38797665 313.56908446 151.5625 317.0625 C150.2425 317.0625 148.9225 317.0625 147.5625 317.0625 C147.2325 318.2175 146.9025 319.3725 146.5625 320.5625 C144.04493996 328.09154107 140.25279443 335.0565345 136.5625 342.0625 C136.24651855 342.66787598 135.93053711 343.27325195 135.60498047 343.89697266 C122.14307509 369.42964851 101.61109377 391.88953943 78.5625 409.0625 C78.00868652 409.48241211 77.45487305 409.90232422 76.88427734 410.33496094 C41.55009514 437.0625 41.55009514 437.0625 27.5625 437.0625 C27.376875 438.25875 27.19125 439.455 27 440.6875 C24.4838839 451.8604631 18.15590307 461.66979135 10.5625 470.0625 C9.89734375 470.82046875 9.2321875 471.5784375 8.546875 472.359375 C-4.60661159 486.48719393 -23.79373809 495.61635256 -43.1015625 496.3984375 C-66.03916395 496.74944537 -86.13754268 491.93596962 -103.4375 476.0625 C-104.57058594 475.06669922 -104.57058594 475.06669922 -105.7265625 474.05078125 C-115.64117737 464.83461863 -122.62600855 453.02923222 -126.4375 440.0625 C-126.4375 439.0725 -126.4375 438.0825 -126.4375 437.0625 C-127.5925 436.7325 -128.7475 436.4025 -129.9375 436.0625 C-137.46654107 433.54493996 -144.4315345 429.75279443 -151.4375 426.0625 C-152.34556396 425.58852783 -152.34556396 425.58852783 -153.27197266 425.10498047 C-163.43716313 419.74546261 -172.46009019 413.19318112 -181.4375 406.0625 C-182.30205811 405.37583252 -182.30205811 405.37583252 -183.18408203 404.67529297 C-196.33343052 394.11953479 -208.11981379 382.33378105 -218.16259766 368.77734375 C-219.39620539 367.11804449 -220.65480975 365.48060396 -221.91796875 363.84375 C-246.4375 331.45909635 -246.4375 331.45909635 -246.4375 317.0625 C-247.63375 316.876875 -248.83 316.69125 -250.0625 316.5 C-262.96211256 313.61081233 -274.54435916 305.62262641 -283.4375 296.0625 C-284.10394531 295.40121094 -284.77039063 294.73992187 -285.45703125 294.05859375 C-301.78507686 277.17422632 -305.98460753 256.39901873 -305.70703125 233.609375 C-305.21765008 216.64737526 -297.8903138 199.6297698 -286.4375 187.0625 C-285.72207031 186.25554687 -285.00664062 185.44859375 -284.26953125 184.6171875 C-274.6465858 174.35061927 -262.96088921 167.03761736 -249.4375 163.0625 C-248.4475 163.0625 -247.4575 163.0625 -246.4375 163.0625 C-246.1075 161.9075 -245.7775 160.7525 -245.4375 159.5625 C-239.27842355 141.22850498 -227.17102093 117.94380687 -212.4375 105.0625 C-209.00704679 104.00697594 -206.84144081 104.10852933 -203.4375 105.0625 C-202.8084375 104.34964844 -202.179375 103.63679688 -201.53125 102.90234375 C-196.9459443 97.77149716 -192.36634674 92.87303012 -187.03125 88.5 C-185.18969323 86.9576522 -185.18969323 86.9576522 -183.4375 84.0625 C-183.56125 82.825 -183.685 81.5875 -183.8125 80.3125 C-183.84556754 77.71433646 -183.72480931 76.46059001 -182.19140625 74.3359375 C-180.04440905 72.38747983 -177.81089124 70.730381 -175.4375 69.0625 C-174.36886719 68.30066406 -173.30023438 67.53882812 -172.19921875 66.75390625 C-138.1644684 43.0625 -138.1644684 43.0625 -126.4375 43.0625 C-126.251875 41.86625 -126.06625 40.67 -125.875 39.4375 C-123.3588839 28.2645369 -117.03090307 18.45520865 -109.4375 10.0625 C-108.77234375 9.30453125 -108.1071875 8.5465625 -107.421875 7.765625 C-79.9435538 -21.7481274 -31.5494477 -24.39239707 0 0 Z M-92.4375 16.0625 C-93.05238281 16.59488281 -93.66726562 17.12726562 -94.30078125 17.67578125 C-99.36934111 22.38470937 -103.13142399 28.00303547 -106.4375 34.0625 C-106.4375 34.7225 -106.4375 35.3825 -106.4375 36.0625 C-105.74527344 35.92150879 -105.05304688 35.78051758 -104.33984375 35.63525391 C-65.67112983 27.85947991 -31.02922126 28.31937776 7.5625 36.0625 C5.66246854 29.4172123 2.02790765 25.20921065 -2.4375 20.0625 C-2.97375 19.42957031 -3.51 18.79664062 -4.0625 18.14453125 C-13.28796883 8.06570656 -27.78078297 0.76409981 -41.51025391 -0.06225586 C-61.21949298 -0.71435499 -77.2037212 2.71452748 -92.4375 16.0625 Z M-81.4375 130.0625 C-82.10362305 130.26617187 -82.76974609 130.46984375 -83.45605469 130.6796875 C-100.45890463 136.04639318 -115.44694728 144.91955782 -128.4375 157.0625 C-129.17097656 157.71605469 -129.90445313 158.36960938 -130.66015625 159.04296875 C-143.79230555 171.28745786 -152.61391867 187.94195719 -158.3125 204.75 C-158.74212036 206.01372437 -158.74212036 206.01372437 -159.18041992 207.30297852 C-165.86424688 228.06204046 -166.04580503 252.26384461 -159.4375 273.0625 C-159.086875 274.17882812 -158.73625 275.29515625 -158.375 276.4453125 C-147.73745029 306.5111648 -126.26811359 329.91850755 -97.83984375 344.05859375 C-86.61920457 349.34347711 -74.56394496 352.62007116 -62.4375 355.0625 C-61.4475 358.5275 -61.4475 358.5275 -60.4375 362.0625 C-56.8333502 362.09150455 -53.22923038 362.10930018 -49.625 362.125 C-48.60083984 362.13337891 -47.57667969 362.14175781 -46.52148438 362.15039062 C-45.53857422 362.15361328 -44.55566406 362.15683594 -43.54296875 362.16015625 C-42.63699951 362.16539307 -41.73103027 362.17062988 -40.79760742 362.17602539 C-38.28465961 362.16170981 -38.28465961 362.16170981 -35.4375 361.0625 C-35.02564453 359.61037109 -35.02564453 359.61037109 -34.60546875 358.12890625 C-33.4375 355.0625 -33.4375 355.0625 -30.92578125 353.77734375 C-29.35376953 353.39255859 -29.35376953 353.39255859 -27.75 353 C-26.57566406 352.68289063 -25.40132812 352.36578125 -24.19140625 352.0390625 C-22.95261719 351.71679688 -21.71382812 351.39453125 -20.4375 351.0625 C-3.98736695 346.31143009 10.32763756 338.95118228 23.5625 328.0625 C24.68398438 327.15177734 24.68398438 327.15177734 25.828125 326.22265625 C43.60676201 311.26010106 55.33648424 290.20730606 61.5625 268.0625 C61.8821875 266.96550781 62.201875 265.86851562 62.53125 264.73828125 C69.59069118 236.07564275 63.53704478 205.88122428 48.66308594 180.83105469 C31.69938112 153.57172067 4.73962217 135.18810018 -26.3359375 127.90234375 C-44.35737876 124.08562525 -63.83511644 124.56546648 -81.4375 130.0625 Z M-271.625 194.6875 C-284.80581204 208.57965745 -290.21527909 224.24594698 -289.96142578 243.04394531 C-289.20764959 262.93391067 -280.14900943 277.12329465 -265.875 290.4375 C-261.98880907 293.81739141 -258.14822272 296.0069119 -253.4375 298.0625 C-253.55794678 297.40620605 -253.67839355 296.74991211 -253.80249023 296.07373047 C-260.12655307 261.47290043 -260.12655307 261.47290043 -260.4375 250.0625 C-260.45796387 249.35802734 -260.47842773 248.65355469 -260.49951172 247.92773438 C-261.05700449 225.75702993 -257.94675841 204.73528428 -253.4375 183.0625 C-259.89303259 183.0625 -267.20007352 190.4889651 -271.625 194.6875 Z M154.5625 183.0625 C154.70349121 183.74014404 154.84448242 184.41778809 154.98974609 185.1159668 C162.07829889 219.54566571 163.90025194 252.18395825 156.46484375 286.70703125 C155.65609248 290.47927234 155.05792963 294.23696608 154.5625 298.0625 C161.98138301 294.49641855 167.70715748 289.81067319 173.5625 284.0625 C174.20316406 283.44632812 174.84382813 282.83015625 175.50390625 282.1953125 C187.22617578 269.97478096 191.10801382 253.89943054 191.05273438 237.47314453 C190.5715753 220.14848396 183.55048234 205.28561147 171.19946289 193.16601562 C163.81979024 186.09316935 163.81979024 186.09316935 154.5625 183.0625 Z M-106.4375 444.0625 C-102.6517231 456.89003532 -91.26681132 466.70308037 -80.02734375 473.23046875 C-65.23949628 481.02357116 -47.9202487 482.94377708 -31.70947266 478.56884766 C-16.2473807 473.74091119 -2.38914018 463.27229335 5.9375 449.25 C7.71389582 446.36183428 7.71389582 446.36183428 7.5625 444.0625 C6.89009277 444.20349121 6.21768555 444.34448242 5.52490234 444.48974609 C-33.19894215 452.51585611 -67.7741641 452.10682741 -106.4375 444.0625 Z " fill="#010000" transform="translate(305.4375,15.9375)"/>
<path d="M0 0 C12.93634656 10.11987471 22.68084371 24.26825003 24.74609375 40.85546875 C24.82988281 41.89316406 24.91367187 42.93085937 25 44 C25.09410156 45.15113281 25.18820312 46.30226562 25.28515625 47.48828125 C25.97176678 64.16059333 20.21957994 79.3007827 9.75 92.25 C-1.91613206 104.80348886 -17.56685834 111.45182651 -34.35546875 113.38671875 C-51.08876708 113.98953322 -67.00477292 107.82671404 -79.375 96.6875 C-87.85444413 88.67191444 -93.12892905 79.97528355 -97 69 C-97.36609375 67.97390625 -97.7321875 66.9478125 -98.109375 65.890625 C-102.02405101 48.78967191 -99.54669148 31.84686785 -90.5 17 C-80.78127587 2.74448387 -66.9425038 -7.51145035 -49.98046875 -11.5703125 C-32.29475004 -14.12002293 -14.64188672 -10.36941189 0 0 Z " fill="#59EB9D" transform="translate(472,27)"/>
<path d="M0 0 C4.07147389 1.26149925 7.6873533 2.79646369 11.4375 4.8125 C22.86741279 10.62697056 39.99361395 18.04903804 53 15 C53.42821045 14.18241211 53.8564209 13.36482422 54.29760742 12.52246094 C56 10 56 10 58.57202148 9.24536133 C61.86139264 9.06915913 65.14457875 8.906689 68.4375 8.8125 C69.58283203 8.73708984 70.72816406 8.66167969 71.90820312 8.58398438 C80.09865978 8.27246905 80.09865978 8.27246905 82.67626953 10.35302734 C83.78515625 12.01171875 83.78515625 12.01171875 85 15 C98.76362097 14.67300253 111.66649607 9.92582882 124.046875 4.234375 C126.73325525 3.11149648 129.13336181 2.4459215 132 2 C138.56169589 11.77306706 145.02839139 21.6054468 151.43383789 31.48168945 C154.31752161 35.92093309 157.21468279 40.34420839 160.21875 44.703125 C160.69376953 45.39599609 161.16878906 46.08886719 161.65820312 46.80273438 C162.52825778 48.06539011 163.40669933 49.32232349 164.29492188 50.57226562 C165.4375 52.234375 165.4375 52.234375 167 55 C165.66762844 58.99711467 163.29445961 59.84569495 159.75 61.6875 C159.09249756 62.03272705 158.43499512 62.3779541 157.75756836 62.73364258 C148.82586611 67.27712045 139.43395031 70.66435162 130 74 C129.29762207 74.25410645 128.59524414 74.50821289 127.87158203 74.77001953 C79.6664118 92.03843874 25.03207772 85.7422442 -20.56103516 64.20019531 C-25.54452598 61.74785889 -30.34004795 59.02646349 -35 56 C-33.28206995 50.78297317 -30.19571383 46.4778939 -27.1875 41.9375 C-26.01161405 40.14590205 -24.83583595 38.3542333 -23.66015625 36.5625 C-23.05574707 35.6446875 -22.45133789 34.726875 -21.82861328 33.78125 C-18.91114994 29.34390121 -16.0179606 24.89084698 -13.125 20.4375 C-12.58359375 19.60500732 -12.0421875 18.77251465 -11.484375 17.91479492 C-7.61879352 11.96669107 -3.78448342 6.00012644 0 0 Z " fill="#FD3016" transform="translate(189,368)"/>
<path d="M0 0 C23.10601242 41.42983784 34.75720217 90.93092758 24 138 C23.81824219 139.16015625 23.63648438 140.3203125 23.44921875 141.515625 C20.02455611 162.66932346 10.61652264 182.57927859 0 201 C-3.23483729 200.36525324 -5.52448887 199.21632713 -8.2890625 197.4375 C-9.1361377 196.89585205 -9.98321289 196.3542041 -10.85595703 195.79614258 C-11.76974121 195.20341553 -12.68352539 194.61068848 -13.625 194 C-14.57616699 193.38858154 -15.52733398 192.77716309 -16.50732422 192.1472168 C-19.67647989 190.10566237 -22.83892649 188.05404467 -26 186 C-27.17055985 185.240377 -28.34113302 184.48077452 -29.51171875 183.72119141 C-33.05221943 181.42249055 -36.58943575 179.11878496 -40.125 176.8125 C-40.69116028 176.44342529 -41.25732056 176.07435059 -41.84063721 175.6940918 C-43.45993113 174.63754125 -45.07765179 173.57858068 -46.6953125 172.51953125 C-47.62359863 171.91214111 -48.55188477 171.30475098 -49.50830078 170.67895508 C-51.7288351 169.18271615 -53.8760694 167.62946563 -56 166 C-54.53696296 161.07887542 -52.47320441 156.52379758 -50.31640625 151.87890625 C-49.66478516 150.45384766 -49.66478516 150.45384766 -49 149 C-48.4946875 147.89785156 -47.989375 146.79570312 -47.46875 145.66015625 C-45.90340089 141.75927296 -44.85510174 137.96527075 -43.9375 133.875 C-43.76831055 133.12420166 -43.59912109 132.37340332 -43.42480469 131.59985352 C-42.9386651 129.40215599 -42.46780733 127.20166054 -42 125 C-41.76925781 123.95972656 -41.53851563 122.91945313 -41.30078125 121.84765625 C-36.00493503 93.86605744 -41.73073054 64.66350105 -55.17578125 39.828125 C-56 38 -56 38 -56 35 C-53.94311523 33.34936523 -53.94311523 33.34936523 -51.05859375 31.55859375 C-49.4813855 30.56678101 -49.4813855 30.56678101 -47.87231445 29.55493164 C-46.72740964 28.84906702 -45.5824708 28.14325758 -44.4375 27.4375 C-42.70092828 26.35074103 -40.9667358 25.2602507 -39.23252869 24.16972351 C-38.08347624 23.44767604 -36.9336244 22.72689914 -35.78297424 22.00740051 C-31.40599433 19.26899108 -27.09085026 16.45185969 -22.8125 13.5625 C-17.95726038 10.30265109 -13.08962592 7.06405459 -8.1875 3.875 C-7.59364502 3.4838501 -6.99979004 3.0927002 -6.38793945 2.68969727 C-2.23124591 0 -2.23124591 0 0 0 Z " fill="#EE1A00" transform="translate(425,155)"/>
<path d="M0 0 C3.38124333 1.26652912 6.34875283 2.71318924 9.38671875 4.66015625 C10.23065186 5.19866211 11.07458496 5.73716797 11.9440918 6.29199219 C12.8494165 6.87625977 13.75474121 7.46052734 14.6875 8.0625 C15.63343018 8.66868164 16.57936035 9.27486328 17.55395508 9.89941406 C30.42893332 18.16999166 43.2674453 26.5116302 56 35 C55.40101704 38.95043527 54.15195226 41.87501569 52.25 45.375 C39.30735658 70.70161158 36.20318778 101.46661716 43 129 C43.2165625 130.01449219 43.433125 131.02898437 43.65625 132.07421875 C44.99272345 138.03266287 46.88307241 143.71965326 49 149.4375 C49.24919189 150.11232422 49.49838379 150.78714844 49.75512695 151.48242188 C50.88366709 154.43859782 52.06364616 157.10129401 53.75 159.78515625 C54.1625 160.51605469 54.575 161.24695313 55 162 C53.59051561 166.22845317 50.53302821 167.39322879 46.875 169.5625 C45.40116109 170.45899609 43.92853083 171.35748181 42.45703125 172.2578125 C41.7088916 172.71446289 40.96075195 173.17111328 40.18994141 173.64160156 C36.92902617 175.6643142 33.74346345 177.79197961 30.5625 179.9375 C25.03248886 183.65529152 19.46940365 187.31723771 13.875 190.9375 C13.1641626 191.39825928 12.4533252 191.85901855 11.72094727 192.33374023 C10.40108789 193.18633687 9.07857972 194.03485303 7.75292969 194.87841797 C6.22082581 195.85870839 4.70643885 196.86657787 3.1953125 197.87890625 C2.10863281 198.43384766 2.10863281 198.43384766 1 199 C-2 198 -2 198 -3.83203125 194.9296875 C-4.50437865 193.58414804 -5.16372315 192.23206155 -5.8125 190.875 C-6.3369873 189.80052612 -6.3369873 189.80052612 -6.87207031 188.7043457 C-10.28456523 181.60744704 -13.20719718 174.35828287 -16 167 C-16.36867188 166.0925 -16.73734375 165.185 -17.1171875 164.25 C-20.45852578 155.75419415 -22.27393144 146.93684097 -24 138 C-24.15388184 137.23526367 -24.30776367 136.47052734 -24.46630859 135.68261719 C-33.60059271 88.85583309 -23.10128669 41.1861525 0 0 Z " fill="#FD3016" transform="translate(87,155)"/>
<path d="M0 0 C1.74796875 0.39638672 1.74796875 0.39638672 3.53125 0.80078125 C21.81987385 5.3133004 38.59834145 12.85256072 55 22 C54.61070312 22.6084375 54.22140625 23.216875 53.8203125 23.84375 C50.7816073 28.60485492 47.76415695 33.37554122 44.79272461 38.17895508 C40.03059397 45.86029271 35.14794709 53.46259737 30.2177124 61.03683472 C29.45089723 62.21549856 28.68530135 63.3949566 27.92095947 64.57522583 C26.8377983 66.24661231 25.74907212 67.91438826 24.66015625 69.58203125 C23.71088257 71.03959839 23.71088257 71.03959839 22.74243164 72.52661133 C21.28178057 74.60001136 19.86472137 76.29643181 18 78 C17.13761719 77.56429687 16.27523437 77.12859375 15.38671875 76.6796875 C-16.96941981 60.72471738 -52.33506468 57.15693172 -86.859375 68.52734375 C-92.33962781 70.46745798 -97.60517761 72.71983426 -102.75 75.4375 C-106 77 -106 77 -107.92578125 76.9921875 C-111.15988262 75.44517856 -112.5964746 72.63608206 -114.4375 69.6875 C-115.07776123 68.69520386 -115.07776123 68.69520386 -115.73095703 67.68286133 C-116.66544016 66.23306033 -117.59490321 64.78001456 -118.52001953 63.32421875 C-120.57106026 60.10318481 -122.65488304 56.90385367 -124.73779297 53.70336914 C-125.83075289 52.02383559 -126.92222105 50.34333034 -128.01220703 48.66186523 C-133.59495494 40.05450856 -139.28788469 31.52185852 -145 23 C-142.09404183 19.90946762 -138.83376766 18.16915239 -135.0625 16.3125 C-134.36592285 15.96799805 -133.6693457 15.62349609 -132.95166016 15.26855469 C-115.30174286 6.70937299 -97.29796762 0.53284354 -77.92773438 -2.67529297 C-76.17191162 -2.97104326 -74.42146785 -3.2982907 -72.671875 -3.62890625 C-48.73104461 -7.60976526 -23.52138488 -5.35262284 0 0 Z " fill="#FD3016" transform="translate(301,65)"/>
<path d="M0 0 C10.88123351 12.29613075 13.86030318 34.46957754 17 50 C17.17934082 50.88091309 17.35868164 51.76182617 17.54345703 52.66943359 C24.45182336 88.21287548 22.04151899 139.69910684 1 171 C-2.80371583 169.61249991 -5.99771194 167.84928061 -9.37890625 165.62890625 C-10.38244141 164.97212891 -11.38597656 164.31535156 -12.41992188 163.63867188 C-13.45697266 162.95353516 -14.49402344 162.26839844 -15.5625 161.5625 C-16.60341797 160.88123047 -17.64433594 160.19996094 -18.71679688 159.49804688 C-27.04587902 154.02924117 -27.04587902 154.02924117 -31 151 C-29.53696296 146.07887542 -27.47320441 141.52379758 -25.31640625 136.87890625 C-24.66478516 135.45384766 -24.66478516 135.45384766 -24 134 C-23.4946875 132.89785156 -22.989375 131.79570312 -22.46875 130.66015625 C-20.90340089 126.75927296 -19.85510174 122.96527075 -18.9375 118.875 C-18.76831055 118.12420166 -18.59912109 117.37340332 -18.42480469 116.59985352 C-17.9386651 114.40215599 -17.46780733 112.20166054 -17 110 C-16.76925781 108.95972656 -16.53851563 107.91945313 -16.30078125 106.84765625 C-11.00493503 78.86605744 -16.73073054 49.66350105 -30.17578125 24.828125 C-31 23 -31 23 -31 20 C-28.80029297 18.25415039 -28.80029297 18.25415039 -25.7421875 16.34765625 C-24.64132812 15.65349609 -23.54046875 14.95933594 -22.40625 14.24414062 C-21.22936916 13.51659943 -20.05228402 12.78938861 -18.875 12.0625 C-17.72072913 11.34019057 -16.56707531 10.61689409 -15.4140625 9.89257812 C-13.27126861 8.5483487 -11.12556145 7.20874443 -8.97607422 5.87524414 C-5.94691873 3.96655314 -2.97057325 1.99817942 0 0 Z " fill="#FD3016" transform="translate(400,170)"/>
<path d="M0 0 C21.17920732 -0.47298478 38.76022159 3.64222685 54.68359375 18.59375 C64.51479168 28.80625915 70.8576226 41.85209525 72 56 C72.09410156 57.15113281 72.18820312 58.30226562 72.28515625 59.48828125 C72.97176678 76.16059333 67.21957994 91.3007827 56.75 104.25 C45.19515727 116.68373457 28.9611639 124.18588901 12.08203125 125.24609375 C9.04227473 125.24940864 6.03346225 125.18699425 3 125 C3 124.34 3 123.68 3 123 C4.58572943 121.93882745 6.22174792 120.9525663 7.875 120 C14.19994461 116.10835662 21.59510429 110.80979143 25 104 C24.16082031 104.2165625 24.16082031 104.2165625 23.3046875 104.4375 C9.37134041 107.66322666 -2.53649075 106.65286953 -14.9296875 99.25 C-18.90849796 96.57439413 -22.47011891 94.15450121 -25 90 C-24.93416738 86.24754049 -24.81598805 83.93687517 -22.3125 81.0625 C-19.27842276 79.66846451 -17.32564591 79.6792112 -14 80 C-11.21875 81.6796875 -11.21875 81.6796875 -8.5 83.875 C-0.75738055 90.08244491 6.2791041 90.90560233 16 90 C22.8238683 88.38126988 27.83428575 84.93081666 33.08984375 80.390625 C35 79 35 79 38 79 C38.33 69.76 38.66 60.52 39 51 C36.36 51.33 33.72 51.66 31 52 C28.5 50.5625 28.5 50.5625 27 48 C26.39733299 45.19329365 26.31800638 42.79674696 27 40 C29.375 37.5 29.375 37.5 32 36 C32.66 36 33.32 36 34 36 C27.09583504 22.03627087 17.98677195 7.44109205 2.63671875 1.75390625 C1.76660156 1.50511719 0.89648438 1.25632812 0 1 C0 0.67 0 0.34 0 0 Z " fill="#33DD81" transform="translate(425,15)"/>
<path d="M0 0 C3.0545745 3.70566294 5.79622351 7.55728566 8.4375 11.5625 C8.86289063 12.20380859 9.28828125 12.84511719 9.7265625 13.50585938 C13.90906113 19.82754427 18.03007791 26.18931518 22.15283203 32.55004883 C27.036412 40.07750799 31.99940195 47.54989907 37 55 C33.82188451 58.22327522 30.57907576 61.31542094 27.1875 64.3125 C17.61900099 72.813719 17.61900099 72.813719 10 83 C5.62077257 81.44608059 1.8367719 79.17023 -2.0625 76.6875 C-2.75077881 76.25308594 -3.43905762 75.81867188 -4.14819336 75.37109375 C-18.2311636 66.45120067 -32.15909039 57.2901863 -46 48 C-45.24803579 43.72617808 -43.01744015 41.34064093 -40.27734375 38.09765625 C-38.70143107 35.50968956 -38.61197684 33.98139317 -39 31 C-39.66 30.34 -40.32 29.68 -41 29 C-40.56987366 22.5203548 -33.14701517 16.9905378 -28.6953125 12.86328125 C-27.35039836 11.68832879 -25.99607829 10.52397691 -24.62890625 9.375 C-22.89099423 7.94714425 -22.89099423 7.94714425 -21 6 C-17.46428571 6.53571429 -17.46428571 6.53571429 -16 8 C-9.00116067 8 -5.1338965 4.45869016 0 0 Z " fill="#F3F3F3" transform="translate(143,95)"/>
<path d="M0 0 C4.30662409 1.5357584 8.0364724 3.74560138 11.875 6.1875 C12.55336914 6.61530762 13.23173828 7.04311523 13.93066406 7.48388672 C28.083733 16.44958914 42.10152691 25.64468371 56 35 C53.18149306 40.63701387 49.56729917 44.90743956 45.29296875 49.5234375 C43.30985884 51.66533134 41.39595391 53.84392456 39.5 56.0625 C33.41661703 62.9911822 26.96593222 69.20301553 19.75 74.9375 C19.15952881 75.41034424 18.56905762 75.88318848 17.96069336 76.37036133 C14.77847637 78.84871926 11.84069867 80.73661228 8 82 C7.37996094 81.03964844 6.75992188 80.07929688 6.12109375 79.08984375 C1.20226542 71.47710117 -3.73027448 63.87358099 -8.68505859 56.28417969 C-11.21845751 52.4034181 -13.74856215 48.52051277 -16.27880859 44.63769531 C-17.83460377 42.25346678 -19.39520794 39.8724689 -20.95703125 37.4921875 C-21.78408613 36.22410959 -22.61092933 34.95589358 -23.4375 33.6875 C-24.13746094 32.61886719 -24.83742188 31.55023438 -25.55859375 30.44921875 C-27 28 -27 28 -27 26 C-25.63034374 24.81821695 -24.20049708 23.70603084 -22.75 22.625 C-18.4511804 19.2739998 -14.5269621 15.73006967 -10.6875 11.875 C-10.19668945 11.38467285 -9.70587891 10.8943457 -9.20019531 10.38916016 C-5.93373375 7.07502112 -2.9386686 3.60776437 0 0 Z " fill="#EFEFEF" transform="translate(360,334)"/>
<path d="M0 0 C2.71146571 1.0528266 3.69121784 2.70799289 5.39257812 5.04736328 C8.70793101 9.37038439 12.22517829 13.27573338 16.08007812 17.10986328 C16.82837891 17.85876831 16.82837891 17.85876831 17.59179688 18.62280273 C20.54625301 21.53551539 23.60845635 24.20122637 26.89257812 26.73486328 C25.45276075 30.76110452 23.50735122 34.03219269 21.11132812 37.56689453 C20.74138229 38.1162265 20.37143646 38.66555847 19.99028015 39.23153687 C19.20175436 40.40193059 18.41127234 41.57100836 17.61898804 42.73886108 C15.56028182 45.7746933 13.5172469 48.82101744 11.47460938 51.86767578 C11.07381668 52.46503036 10.67302399 53.06238495 10.26008606 53.67784119 C5.63155401 60.59251382 1.24110713 67.64252057 -3.10742188 74.73486328 C-4.76977471 77.40423542 -6.43761462 80.07014894 -8.10742188 82.73486328 C-18.03807323 77.92941589 -26.12608145 69.23868761 -34.10742188 61.73486328 C-34.74421875 61.15220703 -35.38101563 60.56955078 -36.03710938 59.96923828 C-43.28509261 53.10272785 -49.1605647 44.72347475 -55.10742188 36.73486328 C-53.61667557 32.38928907 -50.43870926 30.80437704 -46.66992188 28.60986328 C-38.0477511 23.41547621 -29.69335394 17.84511763 -21.33938599 12.23504639 C-18.57182537 10.37678476 -15.80174979 8.52286345 -13.02539062 6.67773438 C-11.22732813 5.48053045 -9.4365325 4.27222246 -7.65820312 3.04589844 C-2.62190489 -0.32986431 -2.62190489 -0.32986431 0 0 Z " fill="#F3F3F3" transform="translate(150.107421875,332.26513671875)"/>
<path d="M0 0 C2.33919839 2.33919839 3.23949051 4.49677273 4.625 7.5 C7.70409111 13.74019191 11.37684999 18.82241318 16 24 C17.01707031 25.15822266 17.01707031 25.15822266 18.0546875 26.33984375 C24.95286445 33.73074763 33.48806749 39.49467672 43 43 C43 43.66 43 44.32 43 45 C40.67491234 46.58875898 38.35133328 48.05688751 35.9375 49.5 C34.46107724 50.40174548 32.9858436 51.3054404 31.51171875 52.2109375 C30.75810059 52.67338867 30.00448242 53.13583984 29.22802734 53.61230469 C25.85472325 55.71331942 22.54892576 57.9096063 19.25 60.125 C18.63729248 60.53476074 18.02458496 60.94452148 17.39331055 61.36669922 C14.41630101 63.36195858 11.45183963 65.37394506 8.5 67.40625 C7.4275 68.1384375 6.355 68.870625 5.25 69.625 C3.83460938 70.60339844 3.83460938 70.60339844 2.390625 71.6015625 C0 73 0 73 -3 73 C-4.69140625 71.1640625 -4.69140625 71.1640625 -6.5625 68.625 C-13.01705691 60.26368407 -20.28274826 52.99006684 -29 47 C-28.36717989 42.78119927 -26.00560874 39.5166971 -23.75 36 C-23.09704956 34.96951538 -23.09704956 34.96951538 -22.4309082 33.91821289 C-20.96168792 31.60708853 -19.48215881 29.30284681 -18 27 C-17.17604736 25.71778564 -17.17604736 25.71778564 -16.33544922 24.40966797 C-14.62341608 21.74970193 -12.90682422 19.09275858 -11.1875 16.4375 C-10.64899414 15.60541016 -10.11048828 14.77332031 -9.55566406 13.91601562 C-6.48010878 9.191139 -3.31272395 4.56188419 0 0 Z " fill="#F1F1F1" transform="translate(362,105)"/>
<path d="M0 0 C2.78125 1.6796875 2.78125 1.6796875 5.5 3.875 C13.23770047 10.07850124 20.28339664 10.91450385 30 10 C35.45735038 8.66967636 39.59078693 6.58328806 43.6875 2.75 C46.3032415 0.31933455 46.92937822 0.01196979 50.6875 -0.625 C54 0 54 0 56.4375 1.5625 C58.74371212 5.16019091 58.91190477 6.79120877 58 11 C52.01977725 18.7294379 42.0158869 23.90068434 32.515625 25.63671875 C17.44035071 27.19449709 6.40343116 24.65064068 -5.9765625 15.74609375 C-8.05266477 13.95455376 -9.57343129 12.34267194 -11 10 C-10.93416738 6.24754049 -10.81598805 3.93687517 -8.3125 1.0625 C-5.27842276 -0.33153549 -3.32564591 -0.3207888 0 0 Z " fill="#010402" transform="translate(411,95)"/>
<path d="M0 0 C1.35156675 1.65191491 2.679762 3.32294092 4 5 C4.69996094 5.88365234 4.69996094 5.88365234 5.4140625 6.78515625 C6.10628906 7.69587891 6.10628906 7.69587891 6.8125 8.625 C7.25207031 9.19476563 7.69164062 9.76453125 8.14453125 10.3515625 C8.56798828 11.16753906 8.56798828 11.16753906 9 12 C7.66762844 15.99711467 5.29445961 16.84569495 1.75 18.6875 C0.76374634 19.20534058 0.76374634 19.20534058 -0.24243164 19.73364258 C-9.17214339 24.2761079 -18.56361083 27.67623665 -28 31 C-28.72896484 31.25942383 -29.45792969 31.51884766 -30.20898438 31.78613281 C-41.73886957 35.83199471 -54.67508619 39.4618804 -67 39 C-64.35277376 36.35277376 -61.33460613 35.58142258 -57.875 34.375 C-49.21869165 31.23598535 -41.11918897 27.32385307 -33 23 C-32.40477539 22.68836914 -31.80955078 22.37673828 -31.19628906 22.05566406 C-22.94720761 17.70798867 -15.58279838 12.66796806 -8.24023438 6.94824219 C-7.60021484 6.45098633 -6.96019531 5.95373047 -6.30078125 5.44140625 C-5.73528564 4.99482666 -5.16979004 4.54824707 -4.5871582 4.08813477 C-3 3 -3 3 0 2 C0 1.34 0 0.68 0 0 Z " fill="#EC1A00" transform="translate(347,411)"/>
<path d="M0 0 C28.52579883 1.94646627 55.2697046 12.20756097 80 26 C79.50628906 26.77085938 79.01257813 27.54171875 78.50390625 28.3359375 C77.86324219 29.33882812 77.22257812 30.34171875 76.5625 31.375 C75.92441406 32.37273437 75.28632813 33.37046875 74.62890625 34.3984375 C73.03100789 36.85830521 73.03100789 36.85830521 72 39 C67.97343803 37.25149294 64.66143921 34.56894621 61.1875 31.9375 C42.79731138 18.30985295 22.0617133 7.30832561 0 1 C0 0.67 0 0.34 0 0 Z " fill="#EC1A00" transform="translate(276,61)"/>
<path d="M0 0 C2.4375 1.625 2.4375 1.625 4 4 C4.5625 6.9375 4.5625 6.9375 4 10 C1.68262395 13.04569423 0.22174087 14.73181298 -3.5625 15.5625 C-6.93473771 14.7842913 -8.0572794 13.87810459 -10 11 C-10.63857688 7.47363655 -10.65841319 4.23936601 -8.9375 1 C-5.82090489 -0.60856522 -3.43737531 -0.42213381 0 0 Z " fill="#020905" transform="translate(462,52)"/>
<path d="M0 0 C2.4375 1.625 2.4375 1.625 4 4 C4.5625 6.9375 4.5625 6.9375 4 10 C1.68262395 13.04569423 0.22174087 14.73181298 -3.5625 15.5625 C-6.93473771 14.7842913 -8.0572794 13.87810459 -10 11 C-10.63857688 7.47363655 -10.65841319 4.23936601 -8.9375 1 C-5.82090489 -0.60856522 -3.43737531 -0.42213381 0 0 Z " fill="#030906" transform="translate(414,52)"/>
</svg>
